PathFileType	4	(X/Y/Z)	Run_500 03
DataRate	CameraRate	NumFrames	NumMarkers	Units	OrigDataRate	OrigDataStartFrame	OrigNumFrames
100	100	6	45	mm	100	122	137
Frame#	Time	RASI			LPSI			RPSI			RTH1			RTH2			RTH3			LTH1			LTH2			LTH3			RTB1			RTB2			RTB3			RLMAL			RMMAL			LTB1			LTB2			LTB3			RCAL			RTOE			RMT5			LCAL			LTOE			LMT5			LACR			RACR			CLAV			C7			LPSH			RUA1			RUA2			RUA3			RLEL			RMEL			LUA1			LUA2			LUA3			LLEL			LMEL			RFAsuperior			RFAradius			RFAulna			LFAsuperior			LFAradius			LFAulna			LASI			
		X1	Y1	Z1	X2	Y2	Z2	X3	Y3	Z3	X4	Y4	Z4	X5	Y5	Z5	X6	Y6	Z6	X7	Y7	Z7	X8	Y8	Z8	X9	Y9	Z9	X10	Y10	Z10	X11	Y11	Z11	X12	Y12	Z12	X13	Y13	Z13	X14	Y14	Z14	X15	Y15	Z15	X16	Y16	Z16	X17	Y17	Z17	X18	Y18	Z18	X19	Y19	Z19	X20	Y20	Z20	X21	Y21	Z21	X22	Y22	Z22	X23	Y23	Z23	X24	Y24	Z24	X25	Y25	Z25	X26	Y26	Z26	X27	Y27	Z27	X28	Y28	Z28	X29	Y29	Z29	X30	Y30	Z30	X31	Y31	Z31	X32	Y32	Z32	X33	Y33	Z33	X34	Y34	Z34	X35	Y35	Z35	X36	Y36	Z36	X37	Y37	Z37	X38	Y38	Z38	X39	Y39	Z39	X40	Y40	Z40	X41	Y41	Z41	X42	Y42	Z42	X43	Y43	Z43	X44	Y44	Z44	X45	Y45	Z45	

115	1.47	942.910442	1085.792714	-231.233827	785.569421	1125.035472	-395.627929	782.2805080000001	1123.67644	-305.360043	952.704824	853.318362	-189.599309	1059.257854	848.406976	-209.160648	1060.456303	729.760073	-220.999356	755.109929	887.2072020000001	-505.928583	772.097748	754.950663	-490.632234	677.078708	691.866777	-474.928955	1166.74382	515.675968	-261.704548	1122.515201	461.912859	-218.875889	1131.926411	334.574538	-264.540093	1083.368877	221.438547	-248.32276	1107.634136	243.052765	-327.417647	568.403156	476.033675	-430.252515	435.049483	466.497362	-440.164428	418.049406	355.455234	-397.722742	1025.056133	202.840785	-317.000826	1243.437179	161.404232	-280.682066	1168.783705	143.758724	-215.543215	266.334641	354.18289	-339.195357	323.894209	135.584577	-335.560996	269.109334	172.914136	-397.853357	917.286125	1592.611507	-495.632869	862.17358	1565.012021	-190.502792	961.608574	1509.011192	-307.505813	855.052756	1596.725422	-349.788638	844.805763	1546.039782	-527.14945	748.001434	1465.727889	-124.95342	669.969817	1448.866893	-178.282873	630.4398639999999	1409.54719	-134.470996	601.155181	1346.775633	-103.092083	598.141949	1335.635398	-196.44989	879.071869	1452.229177	-579.14773	825.105266	1365.187292	-570.801842	866.560371	1318.540182	-610.539191	891.42207	1241.464386	-616.475531	830.38518	1231.811063	-543.124857	642.405163	1280.658099	-111.011599	838.007771	1261.409973	-140.12101	815.907364	1199.556153	-123.980087	950.435422	1244.404039	-538.743469	1010.850604	1384.585647	-452.332964	1050.073188	1329.394007	-439.928869	943.8996079999999	1065.124416	-459.845446	
116	1.48	943.158995	1086.299911	-232.86564	785.291265	1126.714009	-395.804827	782.710563	1124.5282	-305.880534	947.907301	849.65367	-189.978964	1054.388153	840.629598	-206.357756	1050.545203	721.675225	-218.940436	758.4381080000001	887.894051	-507.314489	775.215061	756.564985	-490.310486	680.0889539999999	692.909798	-475.95757	1167.064331	508.049161	-261.069217	1128.525547	449.570602	-218.949822	1150.666393	324.763104	-266.765623	1113.319693	206.89515	-251.936155	1135.62371	232.806125	-330.410829	562.647349	482.348081	-430.873382	428.338566	483.988933	-439.768998	402.785809	374.968241	-396.836943	1056.46756	186.988871	-320.553871	1277.654042	160.417414	-287.786649	1204.992041	132.76224	-223.373467	249.643455	385.429459	-338.402824	293.667949	165.182056	-331.90258	241.977197	203.567347	-395.217995	918.338826	1596.519307	-493.36654	862.619646	1567.347962	-189.139473	962.008141	1511.637996	-306.164101	855.940983	1599.700213	-347.692033	846.100266	1550.055603	-525.412454	747.088076	1467.744758	-125.83051	670.122271	1451.869064	-181.172829	629.492179	1412.094153	-139.116607	599.181327	1349.347078	-108.668681	598.513646	1338.310988	-202.103433	881.814603	1456.282071	-577.822272	828.494875	1368.509411	-571.988564	871.619022	1322.596243	-610.8410270000001	896.520427	1245.920919	-616.576769	833.048505	1235.446912	-544.658365	641.114508	1283.466837	-115.771211	837.95716	1266.177035	-140.97965	816.022889	1204.275739	-125.09371	953.303931	1249.917014	-537.684533	1009.263075	1390.349037	-448.42026	1048.702035	1335.567225	-435.430029	943.853036	1068.870717	-461.974522	
117	1.49	943.110668	1086.661331	-233.96763	784.624537	1127.154254	-396.267599	782.371474	1124.023679	-306.770511	944.0249669999999	846.39004	-189.4576	1049.429317	831.416068	-202.812262	1039.475564	712.354935	-216.806751	762.850041	886.3904240000001	-508.215792	778.95607	756.6579850000001	-489.888712	684.361554	692.427804	-476.286967	1164.780638	499.748771	-261.819349	1131.618805	438.032158	-219.755905	1164.699845	316.30475	-269.543141	1137.422124	195.387003	-255.390457	1156.960655	224.638569	-333.501257	559.592276	487.518696	-431.537996	425.401455	501.379143	-438.939393	390.849028	394.876777	-396.917234	1081.422811	173.651613	-322.998051	1304.418847	162.011846	-296.729728	1235.740471	125.878847	-231.311135	238.600874	417.535375	-337.12521	266.361711	195.315393	-332.319615	216.969729	237.264419	-394.612887	919.721669	1599.437924	-490.935132	863.557734	1568.951864	-187.870558	962.597866	1513.123719	-304.789649	857.177717	1601.950023	-345.522067	847.4547659999999	1553.47421	-523.519722	746.964887	1468.584912	-126.298388	670.907904	1453.686734	-182.999968	629.723042	1412.928765	-142.796003	598.727943	1350.058566	-113.518651	600.293127	1339.348654	-206.921349	883.532586	1460.045763	-576.3119809999999	830.686303	1371.897204	-572.69438	874.910805	1326.712038	-611.485608	899.680551	1250.15846	-617.825646	834.690254	1238.824239	-547.008653	641.234991	1284.40375	-119.552622	839.177865	1268.873751	-140.899178	817.232026	1206.970704	-125.158084	954.911734	1253.521917	-537.844467	1008.921244	1392.955164	-445.422899	1048.159726	1338.008926	-432.734991	943.8030209999999	1071.852359	-463.629464	
118	1.5	942.8723199999999	1087.013682	-234.478941	783.992105	1126.417706	-397.274025	781.439181	1122.38785	-307.74117	940.480325	843.053635	-187.675365	1044.005927	821.1046689999999	-199.132998	1028.093999	702.525245	-215.026707	766.939196	884.013094	-508.429507	783.175818	755.362211	-489.86209	689.7945559999999	690.233922	-475.942386	1160.389533	491.506755	-262.948745	1131.545992	427.692431	-220.989288	1173.397819	309.142948	-272.457926	1154.418617	186.511944	-258.934834	1171.168563	218.029188	-336.811159	559.469084	491.397541	-432.156859	426.676147	518.150612	-437.611252	382.794253	414.899523	-397.98137	1098.921738	162.539549	-325.400727	1322.710466	164.579962	-306.121163	1258.65135	122.319595	-238.848266	233.762776	449.653591	-335.49681	242.722995	225.539721	-337.309513	195.423304	273.763988	-396.71743	921.450681	1601.383178	-488.302019	864.913035	1569.532367	-186.812962	963.366293	1513.254423	-303.482957	858.5505889999999	1603.02668	-343.674537	848.909405	1556.297901	-521.580118	747.455233	1468.219702	-126.472615	672.042154	1453.969754	-183.858959	630.8943420000001	1411.87194	-145.358849	599.662657	1348.7417	-117.298692	603.148462	1338.451339	-210.666389	884.432666	1463.522245	-575.005216	831.695746	1375.491488	-573.216014	876.295611	1330.877913	-612.665328	900.67542	1254.184902	-620.12409	835.00563	1242.158986	-550.207497	642.667272	1283.475847	-122.114605	841.5305499999999	1269.56708	-139.879262	819.459914	1207.758077	-124.237347	955.069904	1255.22949	-539.184074	1009.740511	1392.404741	-443.261839	1048.241968	1336.648386	-431.763082	943.731675	1073.690012	-464.867773	
119	1.51	942.576984	1087.217383	-234.500366	783.510506	1124.457394	-398.62609	780.436339	1119.858753	-308.501838	936.282968	838.791881	-184.539643	1037.651229	810.144713	-196.278831	1017.467833	692.89464	-213.578197	770.029677	880.996252	-507.88359	788.069779	752.583825	-490.286494	696.420135	686.023422	-475.253748	1154.309191	483.79742	-263.807957	1128.23182	418.452892	-222.535423	1176.531559	302.799956	-275.357293	1163.42889	179.30788	-263.119982	1178.426422	212.384833	-340.690146	562.316714	493.807381	-432.706066	432.198482	533.452399	-436.051937	379.030634	434.317943	-399.526076	1108.576443	153.682764	-329.349609	1332.34533	165.645246	-313.960409	1271.518758	119.658583	-245.684227	234.371254	480.708865	-333.934814	223.78214	256.337383	-345.095632	179.600264	311.34526	-401.350231	923.579457	1602.191392	-485.56775	866.659263	1568.747409	-185.903774	964.286952	1511.976999	-302.262953	859.901018	1602.773853	-342.239605	850.57509	1558.348128	-519.681628	748.4935850000001	1466.53791	-126.395485	673.378464	1452.412081	-183.947248	632.820428	1408.868065	-146.788375	601.763379	1345.406176	-119.752456	606.760073	1335.33174	-213.059479	884.872109	1466.547896	-574.149243	831.6334890000001	1379.102352	-573.87613	875.966412	1334.850577	-614.452332	899.573697	1257.824727	-623.342531	833.818527	1245.364579	-554.192291	645.21578	1280.677516	-123.358338	844.8165320000001	1268.343825	-137.973206	822.624267	1206.681527	-122.489393	953.743051	1255.122572	-541.777555	1011.296781	1388.684443	-441.837597	1048.493752	1331.551699	-432.344695	943.624372	1073.959304	-465.77734	
120	1.52	942.3040130000001	1086.977094	-234.302373	782.987221	1121.284609	-399.737303	779.732472	1116.763981	-308.82202	930.917188	833.4507610000001	-180.505373	1030.448296	799.301181	-194.753082	1008.318102	684.048168	-212.338305	772.247314	876.7198519999999	-506.674383	793.650067	748.2477259999999	-490.958465	704.129135	679.776729	-474.571047	1146.673256	476.508537	-264.533518	1121.805145	409.862718	-224.577497	1174.141647	296.481791	-278.508451	1164.008313	172.554195	-268.400326	1178.999456	207.108021	-345.549668	568.043453	494.659333	-433.208595	441.716872	546.385307	-434.918095	379.845721	452.21609	-400.9624	1110.399673	146.845318	-335.795617	1333.695842	163.220783	-318.814455	1273.452437	115.094325	-251.756507	239.621564	509.761586	-332.941809	210.859146	287.404615	-353.283349	171.44528	347.621841	-407.63172	926.028595	1601.607571	-482.991223	868.734362	1566.364556	-184.986805	965.3552560000001	1509.348221	-301.09165	861.198816	1601.270785	-340.98106	852.41929	1559.312269	-517.901792	750.121249	1463.333513	-125.981214	674.965695	1448.809214	-183.415483	635.416199	1403.938842	-147.134369	604.830431	1340.162569	-120.718961	610.881989	1329.935223	-213.854046	885.116274	1468.827514	-573.781141	830.658898	1382.384057	-574.915195	874.284917	1338.294486	-616.832361	896.656876	1260.782527	-627.366574	831.143614	1248.125047	-558.8665569999999	648.698358	1275.956355	-123.279852	848.8828600000001	1265.270838	-135.311254	826.695591	1203.642156	-120.177772	950.949432	1253.24092	-545.641935	1012.992583	1381.755983	-441.230681	1048.362876	1322.913303	-434.315247	943.490681	1072.430995	-466.395688	
